<svg enable-background="new 0 0 343 343" viewBox="0 0 343 343" xmlns="http://www.w3.org/2000/svg" xmlns:xlink="http://www.w3.org/1999/xlink"><mask id="a" height="607.3" maskUnits="userSpaceOnUse" width="414.6" x="-8.7" y="-53.8"><path d="m294.8 20h-246.6c-15.6 0-28.2 12.6-28.2 28.2v246.6c0 15.6 12.6 28.2 28.2 28.2h246.6c15.6 0 28.2-12.6 28.2-28.2v-246.6c0-15.6-12.6-28.2-28.2-28.2z" fill="#fff"/></mask><linearGradient id="b" gradientTransform="matrix(1 0 0 -1 0 343.8898)" gradientUnits="userSpaceOnUse" x1="93.9161" x2="312.2451" y1="251.8367" y2="28.265"><stop offset="0" stop-color="#ff98ef"/><stop offset="1" stop-color="#a04cff"/></linearGradient><linearGradient id="c"><stop offset="0" stop-color="#ff6fb7"/><stop offset="1" stop-color="#fff569"/></linearGradient><linearGradient id="d" gradientTransform="matrix(1 0 0 -1 0 343.8898)" gradientUnits="userSpaceOnUse" x1="166.8087" x2="-23.4767" xlink:href="#c" y1="300.2492" y2="203.9364"/><linearGradient id="e" gradientTransform="matrix(1 0 0 -1 0 343.8898)" gradientUnits="userSpaceOnUse" x1="245.0434" x2="435.3284" y1="92.1896" y2="-4.1234"><stop offset="0" stop-color="#c16fff"/><stop offset="1" stop-color="#8f69ff"/></linearGradient><linearGradient id="f" gradientTransform="matrix(1 0 0 -1 0 343.8898)" gradientUnits="userSpaceOnUse" x1="347.817" x2="210.567" y1="13.6852" y2="-10.2748"><stop offset="0" stop-color="#7e6fff"/><stop offset="1" stop-color="#ff69db"/></linearGradient><linearGradient id="g" gradientTransform="matrix(1 0 0 -1 0 343.8898)" gradientUnits="userSpaceOnUse" x1="310.6826" x2="101.645" xlink:href="#c" y1="172.9662" y2="406.2334"/><g mask="url(#a)"><path d="m294.8 20h-246.6c-15.6 0-28.2 12.6-28.2 28.2v246.6c0 15.6 12.6 28.2 28.2 28.2h246.6c15.6 0 28.2-12.6 28.2-28.2v-246.6c0-15.6-12.6-28.2-28.2-28.2z"/><path d="m294.8 20h-246.6c-15.6 0-28.2 12.6-28.2 28.2v246.6c0 15.6 12.6 28.2 28.2 28.2h246.6c15.6 0 28.2-12.6 28.2-28.2v-246.6c0-15.6-12.6-28.2-28.2-28.2z" fill="url(#b)"/><path d="m198.1 9.9c42.3 59.7 17.6 101.7-74 125.8-91.6 24.2-127.1 55.1-106.5 92.8v-218.6z" fill="url(#d)"/><path d="m213.7 218c-42.3 59.7-17.6 101.7 74 125.8s127.1 55.1 106.6 92.7v-218.5z" fill="url(#e)"/><path d="m330.8 180.1c-110.2-40.8-164.9 14.9-164.2 167.1s-32.4 220.2-99.4 203.9l338.7-90.8z" fill="url(#f)" opacity=".6731"/><path d="m370.6 202.6c-68.8 82.8-137.8 63.7-207-57.2-69.1-120.8-126.6-159.5-172.3-115.9l310.6-83.2z" fill="url(#g)" opacity=".5616"/></g></svg>