<svg enable-background="new 0 0 343 343" viewBox="0 0 343 343" xmlns="http://www.w3.org/2000/svg" xmlns:xlink="http://www.w3.org/1999/xlink"><mask id="a" height="403.5" maskUnits="userSpaceOnUse" width="731.6" x="-279.1" y="-2"><path d="m294.8 20h-246.6c-15.6 0-28.2 12.6-28.2 28.2v246.6c0 15.6 12.6 28.2 28.2 28.2h246.6c15.6 0 28.2-12.6 28.2-28.2v-246.6c0-15.6-12.6-28.2-28.2-28.2z" fill="#fff"/></mask><linearGradient id="b" gradientTransform="matrix(1 0 0 -1 0 343.8898)" gradientUnits="userSpaceOnUse" x1="117.8361" x2="207.3441" y1="269.6065" y2="107.4549"><stop offset="0" stop-color="#aeff98"/><stop offset="1" stop-color="#ffbc4c"/></linearGradient><linearGradient id="c" gradientTransform="matrix(1 0 0 -1 0 343.8898)" gradientUnits="userSpaceOnUse" x1="-52.5381" x2="-15.6952" y1="288.8775" y2="192.898"><stop offset="0" stop-color="#ff50f1"/><stop offset="1" stop-color="#ffd54e"/></linearGradient><linearGradient id="d" gradientTransform="matrix(1 0 0 -1 0 343.8898)" gradientUnits="userSpaceOnUse" x1="99.2382" x2="149.869" y1="288.311" y2="156.4139"><stop offset="0" stop-color="#ffef50"/><stop offset="1" stop-color="#ff9e4e"/></linearGradient><linearGradient id="e" gradientTransform="matrix(1 0 0 -1 0 343.8898)" gradientUnits="userSpaceOnUse" x1="163.0647" x2="181.4597" y1="173.5039" y2="104.8529"><stop offset="0" stop-color="#2ca8ff"/><stop offset="1" stop-color="#4ecfff"/></linearGradient><linearGradient id="f" gradientTransform="matrix(1 0 0 -1 0 343.8898)" gradientUnits="userSpaceOnUse" x1="181.4806" x2="216.9205" y1="115.4034" y2="-26.7404"><stop offset="0" stop-color="#50edff"/><stop offset="1" stop-color="#4ef2ff"/></linearGradient><g mask="url(#a)"><path d="m294.8 20h-246.6c-15.6 0-28.2 12.6-28.2 28.2v246.6c0 15.6 12.6 28.2 28.2 28.2h246.6c15.6 0 28.2-12.6 28.2-28.2v-246.6c0-15.6-12.6-28.2-28.2-28.2z"/><path d="m294.8 20h-246.6c-15.6 0-28.2 12.6-28.2 28.2v246.6c0 15.6 12.6 28.2 28.2 28.2h246.6c15.6 0 28.2-12.6 28.2-28.2v-246.6c0-15.6-12.6-28.2-28.2-28.2z" fill="url(#b)"/><g clip-rule="evenodd" fill-rule="evenodd"><path d="m-279.1 187.3c34.3-50.5 68.4-77.8 102.1-82 50.6-6.3 98.3 4.5 150.1-44.5s185.6-79.3 229.8-53.2c29.5 17.5-35.5 62.2-194.8 134.2l-221.7 70.3z" fill="url(#c)"/><path d="m-121.1 204.1c29.2-63.8 61.3-96.3 96.2-97.4 52.4-1.6 104.1 19.7 151.9-39.8s184.5-82.2 234.6-40.6c33.5 27.8-28.7 79.7-186.6 155.6l-223.7 65z" fill="url(#d)"/><path d="m-81.8 257c35.2-62.3 70.3-91.9 105.3-88.9 52.5 4.5 102.1 32.5 155.4-23 53.3-55.6 192-62.9 238.1-14.1 30.7 32.5-36.3 78.6-201.1 138.1l-229.5 40.5z" fill="url(#e)"/><path d="m-55.2 349.6c36.6-60.3 72.4-88.7 107.2-85.4 52.3 5 101.1 32.7 155.7-20.8 54.6-53.6 193.1-59.2 237.9-11.3 29.9 32-38.1 76.1-204.1 132.4l-230 37.1z" fill="url(#f)"/></g></g></svg>