<svg enable-background="new 0 0 343 343" viewBox="0 0 343 343" xmlns="http://www.w3.org/2000/svg" xmlns:xlink="http://www.w3.org/1999/xlink"><mask id="a" height="503.4" maskUnits="userSpaceOnUse" width="703.8" x="-168.6" y="-87.7"><path d="m294.8 20h-246.6c-15.6 0-28.2 12.6-28.2 28.2v246.6c0 15.6 12.6 28.2 28.2 28.2h246.6c15.6 0 28.2-12.6 28.2-28.2v-246.6c0-15.6-12.6-28.2-28.2-28.2z" fill="#fff"/></mask><linearGradient id="b" gradientTransform="matrix(1 0 0 -1 0 343.8898)" gradientUnits="userSpaceOnUse" x1="58.0559" x2="322.8316" y1="272.7009" y2="38.5773"><stop offset="0" stop-color="#98f6ff"/><stop offset="1" stop-color="#4c72ff"/></linearGradient><linearGradient id="c" gradientTransform="matrix(1 0 0 -1 0 343.8898)" gradientUnits="userSpaceOnUse" x1="183.6463" x2="257.2163" y1="162.8564" y2="128.7464"><stop offset="0" stop-color="#749dff"/><stop offset="1" stop-color="#6a74ff"/></linearGradient><linearGradient id="d" gradientTransform="matrix(1 0 0 -1 0 343.8898)" gradientUnits="userSpaceOnUse" x1="187.4298" x2="37.4393" y1="262.699" y2="247.9955"><stop offset="0" stop-color="#7491ff"/><stop offset="1" stop-color="#846aff"/></linearGradient><linearGradient id="e" gradientTransform="matrix(1 0 0 -1 0 343.8898)" gradientUnits="userSpaceOnUse" x1="260.9495" x2="152.3625" y1="244.5811" y2="220.787"><stop offset="0" stop-color="#74c1ff"/><stop offset="1" stop-color="#6ab0ff"/></linearGradient><linearGradient id="f" gradientTransform="matrix(1 0 0 -1 0 343.8898)" gradientUnits="userSpaceOnUse" x1="309.2281" x2="347.2891" y1="156.4669" y2="44.7269"><stop offset="0" stop-color="#74bfff"/><stop offset="1" stop-color="#83ff98"/></linearGradient><g mask="url(#a)"><path d="m294.8 20h-246.6c-15.6 0-28.2 12.6-28.2 28.2v246.6c0 15.6 12.6 28.2 28.2 28.2h246.6c15.6 0 28.2-12.6 28.2-28.2v-246.6c0-15.6-12.6-28.2-28.2-28.2z"/><path d="m294.8 20h-246.6c-15.6 0-28.2 12.6-28.2 28.2v246.6c0 15.6 12.6 28.2 28.2 28.2h246.6c15.6 0 28.2-12.6 28.2-28.2v-246.6c0-15.6-12.6-28.2-28.2-28.2z" fill="url(#b)"/><g clip-rule="evenodd" fill-rule="evenodd"><path d="m123.3 326.8c-14.5-78 16.5-118.6 93-121.9s129.4-39.6 158.7-108.7l160.1 61-94.7 236.8-80.9 21.6-206.5-62z" fill="url(#c)"/><path d="m195.3-29.9c34.2 71.6 14.8 118.9-58.4 141.9-73.1 23-114.9 71.8-125.2 146.2l-170.7-17.6 30.2-253.5 72.7-41.8 215.8 6.5z" fill="url(#d)"/><path d="m219.7-78.7c68.4 74.5 62.3 139.4-18.2 194.8-80.5 55.3-113.2 130.2-98.1 224.8l-214.4 42.1-57.6-320.3 72.9-78 265.3-72.5z" fill="url(#e)" opacity=".6"/><path d="m199.5 334.7c-24.6-51.6-10.6-85.7 41.9-102.3 52.6-16.6 82.6-51.7 90-105.3l122.6 12.7-21.7 182.7-52.2 30.1-155.1-4.7z" fill="url(#f)"/></g></g></svg>