<svg fill="#ffffff" xmlns="http://www.w3.org/2000/svg"  viewBox="0 0 30 30" width="550px" height="550px"><path d="M5.472 10.865c-.353.436-.919.78-1.485.731-.07-.589.207-1.216.531-1.603C4.872 9.545 5.49 9.225 5.991 9.201 6.05 9.815 5.82 10.416 5.472 10.865M5.925 11.9c-.825 0-1.415.45-1.8.45-.391 0-.975-.445-1.65-.445-.825 0-1.633.518-2.059 1.273-.875 1.509-.227 3.743.619 4.972.415.608.915 1.25 1.59 1.25.619-.023.828-.375 1.575-.375.752 0 .975.375 1.65.375s1.084-.619 1.498-1.227c.473-.69.665-1.363.677-1.398-.011-.011-1.307-.509-1.319-2.006-.011-1.252 1.021-1.849 1.068-1.883C7.191 12.02 6.225 11.9 6 11.9H5.925zM14.222 10.4H10.8v9h1.425v-3h1.95c1.79 0 3.075-1.245 3.075-3S15.988 10.4 14.222 10.4zM13.875 15.2h-1.65v-3.6h1.65c1.228 0 1.95.663 1.95 1.8S15.109 15.2 13.875 15.2zM20.52 12.8c-1.493 0-2.597.838-2.638 1.989h1.267c.104-.547.622-.906 1.331-.906.86 0 1.346.393 1.346 1.117l.001.5-1.759.093c-1.633.097-2.516.752-2.516 1.892 0 1.151.913 1.915 2.22 1.915.883 0 1.703-.439 2.074-1.134h.029v1.066h1.301V14.91C23.175 13.626 22.129 12.8 20.52 12.8zM21.821 16.921c0 .832-.721 1.425-1.673 1.425-.749 0-1.226-.353-1.226-.895 0-.559.459-.883 1.337-.935l1.567-.116L21.821 16.921zM28.557 12.8l-1.672 5.33h-.029l-1.672-5.33H23.7l2.405 6.569-.129.4c-.217.677-.569.938-1.196.938-.107 0-.311-.011-.404-.022v1.083C24.47 21.789 24.8 21.8 24.902 21.8c1.384 0 2.035-.521 2.605-2.101L30 12.8H28.557z"/></svg>