<svg enable-background="new 0 0 35 35" viewBox="0 0 35 35" xmlns="http://www.w3.org/2000/svg" xmlns:xlink="http://www.w3.org/1999/xlink"><linearGradient id="a" gradientTransform="matrix(1 0 0 -1 0 35.8898)" gradientUnits="userSpaceOnUse" x1="17.5" x2="17.5" y1="35.8898" y2=".8898"><stop offset="0" stop-color="#ff69d3"/><stop offset="1" stop-color="#4ff0ff"/></linearGradient><path d="m17.5 35c9.7 0 17.5-7.8 17.5-17.5s-7.8-17.5-17.5-17.5-17.5 7.8-17.5 17.5 7.8 17.5 17.5 17.5z" fill="url(#a)"/><path d="m14.6 24.2c-.2 0-.5-.1-.7-.3l-5.7-5.7c-.4-.4-.4-1 0-1.3.4-.4 1-.4 1.3 0l5.1 5.1 10.8-10.8c.4-.4 1-.4 1.3 0 .4.4.4 1 0 1.3l-11.4 11.4c-.2.2-.4.3-.7.3z" fill="#fff"/></svg>