<svg enable-background="new 0 0 63 24" viewBox="0 0 63 24" xmlns="http://www.w3.org/2000/svg"><g fill="#fff"><path d="m29.8 11.7v7h-2.3v-17.3h6.2c.7 0 1.5.1 2.2.4s1.3.6 1.8 1.1 1 1 1.2 1.7c.3.6.4 1.3.4 2s-.1 1.4-.4 2-.7 1.2-1.3 1.7c-1.1 1-2.4 1.5-4 1.5zm0-8.2v6.1h3.9c.4 0 .9-.1 1.2-.2s.8-.4 1.1-.7.5-.6.7-1 .2-.8.2-1.2-.1-.8-.2-1.2c-.2-.4-.4-.7-.7-1s-.7-.5-1-.7c-.4-.2-.8-.2-1.3-.2z"/><path d="m44.7 6.5c1.7 0 3.1.4 4.1 1.3s1.5 2.1 1.5 3.6v7.3h-2.3v-1.6h-.1c-1 1.4-2.2 2-3.8 2-1.4 0-2.5-.4-3.4-1.2-.4-.4-.8-.8-1-1.3s-.4-1.1-.3-1.6c0-1.2.5-2.2 1.5-2.9s2.3-1.1 3.9-1.1c1.4 0 2.5.2 3.4.7v-.5c0-.4-.1-.7-.2-1.1-.2-.3-.4-.6-.7-.9-.6-.5-1.4-.8-2.2-.8-1.3 0-2.3.5-3.1 1.6l-2-1.2c.8-1.5 2.5-2.3 4.7-2.3zm-3 8.6c0 .3.1.6.2.8.1.3.3.5.6.6.5.4 1.2.6 1.8.6 1 0 1.9-.4 2.6-1 .8-.7 1.2-1.5 1.2-2.4-.7-.6-1.7-.8-3-.8-.9 0-1.7.2-2.4.7-.7.3-1 .9-1 1.5z"/><path d="m63 6.9-7.8 17.1h-2.4l2.9-6-5.1-11.1h2.5l3.7 8.5h.1l3.6-8.5z"/></g><path d="m20.4 10.2c0-.7-.1-1.4-.2-2h-9.8v3.8h5.6c-.1.6-.4 1.2-.7 1.7-.4.5-.8 1-1.4 1.3l3.4 2.5c2-1.7 3.1-4.3 3.1-7.3z" fill="#4285f4"/><path d="m10.4 20c2.8 0 5.2-.9 6.9-2.4l-3.4-2.5c-.9.6-2.1 1-3.5 1-2.7 0-5-1.8-5.8-4.1l-3.5 2.6c.9 1.7 2.2 3 3.8 4 1.7.8 3.6 1.4 5.5 1.4z" fill="#34a853"/><path d="m4.6 11.9c-.4-1.2-.4-2.6 0-3.8l-3.5-2.6c-.7 1.4-1.1 2.9-1.1 4.5s.4 3.1 1.1 4.5z" fill="#fbbc04"/><path d="m10.4 3.9c1.5 0 2.9.5 4 1.5l3-2.8c-1.9-1.7-4.4-2.6-7-2.6-1.9 0-3.8.5-5.5 1.5-1.6 1-3 2.4-3.8 4l3.5 2.6c.8-2.4 3.1-4.2 5.8-4.2z" fill="#ea4335"/></svg>