<svg fill="none" height="25" viewBox="0 0 25 25" width="25" xmlns="http://www.w3.org/2000/svg" xmlns:xlink="http://www.w3.org/1999/xlink"><clipPath id="a"><path d="m0 0h25v25h-25z"/></clipPath><g clip-path="url(#a)" fill="#fff"><path d="m9.11456 18.3459v4.8313c0 .3375.21667.6365.5375.7427.08021.026.1625.0385.24375.0385.24379 0 .47919-.1145.62919-.3187l2.826-3.8458z"/><path d="m24.6709.144884c-.2395-.1697917-.5541-.1927084-.8145-.05625l-23.437539 12.239566c-.277083.1448-.4406246.4406-.4177079.7521.0239583.3125.2312499.5792.5260419.6802l6.515625 2.2271 13.87608-11.86459-10.7375 12.93649 10.9198 3.7323c.0812.027.1666.0416.252.0416.1417 0 .2823-.0385.4063-.1135.1979-.1208.3323-.324.3667-.5521l2.8645-19.270833c.0427-.291666-.0802-.58125-.3198-.752083z"/></g></svg>