<svg enable-background="new 0 0 35 30" viewBox="0 0 35 30" xmlns="http://www.w3.org/2000/svg"><g fill="#fff"><path d="m3 1h29c1.7 0 3 1.3 3 3 0 1.7-1.3 3-3 3h-29c-1.7 0-3-1.3-3-3 0-1.7 1.3-3 3-3z" opacity=".25"/><path d="m3 12h29c1.7 0 3 1.3 3 3 0 1.7-1.3 3-3 3h-29c-1.7 0-3-1.3-3-3 0-1.7 1.3-3 3-3z" opacity=".25"/><path d="m3 23h29c1.7 0 3 1.3 3 3 0 1.7-1.3 3-3 3h-29c-1.7 0-3-1.3-3-3 0-1.7 1.3-3 3-3z" opacity=".25"/><circle cx="26" cy="4" r="4"/><circle cx="18" cy="15" r="4"/><circle cx="10" cy="26" r="4"/></g></svg>