<svg enable-background="new 0 0 27.7 26.8" viewBox="0 0 27.7 26.8" xmlns="http://www.w3.org/2000/svg" xmlns:xlink="http://www.w3.org/1999/xlink"><linearGradient id="a" gradientTransform="matrix(1 0 0 -1 0 28.5372)" gradientUnits="userSpaceOnUse" x1="13.8655" x2="13.8655" y1="39.2135" y2="-10.7865"><stop offset="0" stop-color="#7fbbfb"/><stop offset="1" stop-color="#ff8bad"/></linearGradient><path d="m9.3 3.3c1.4-4.4 7.7-4.4 9.1 0 .6 2 2.5 3.3 4.5 3.3 4.6 0 6.5 5.9 2.8 8.6-1.7 1.2-2.4 3.4-1.7 5.3 1.4 4.4-3.6 8.1-7.3 5.3-1.7-1.2-3.9-1.2-5.6 0-3.7 2.7-8.8-.9-7.3-5.3.6-2-.1-4.1-1.7-5.3-3.7-2.7-1.8-8.6 2.8-8.6 2 0 3.8-1.3 4.4-3.3z" fill="url(#a)"/><path d="m12 5.2c.6-1.8 3.2-1.8 3.8 0l1 3.1c.3.8 1 1.4 1.9 1.4h3.3c1.9 0 2.7 2.5 1.2 3.6l-2.7 1.9c-.7.5-1 1.4-.7 2.2l1 3.1c.6 1.8-1.5 3.4-3.1 2.2l-2.7-1.8c-.7-.5-1.7-.5-2.4 0l-2.6 1.9c-1.5 1.2-3.6-.4-3-2.2l1-3.1c.3-.8 0-1.7-.7-2.2l-2.7-1.9c-1.6-1.2-.8-3.7 1.2-3.7h3.2c.9 0 1.6-.6 1.9-1.4z" fill="#fff"/></svg>