<svg enable-background="new 0 0 55 55" viewBox="0 0 55 55" xmlns="http://www.w3.org/2000/svg" xmlns:xlink="http://www.w3.org/1999/xlink"><linearGradient id="a" gradientTransform="matrix(1 0 0 -1 0 55.8898)" gradientUnits="userSpaceOnUse" x1="27.5" x2="27.5" y1="55.8898" y2=".8898"><stop offset="0" stop-color="#ffa18d"/><stop offset="1" stop-color="#fd4285"/></linearGradient><clipPath id="b"><path d="m13 15h25v25h-25z"/></clipPath><circle cx="27.5" cy="27.5" fill="url(#a)" fill-opacity=".8" r="27.5"/><g clip-path="url(#b)" fill="#fff"><path d="m22.1 33.3v4.8c0 .3.2.6.5.7h.2c.2 0 .5-.1.6-.3l2.8-3.8z"/><path d="m37.7 15.1c-.2-.2-.6-.2-.8-.1l-23.5 12.3c-.3.1-.4.4-.4.8 0 .3.2.6.5.7l6.5 2.2 13.9-11.9-10.7 13 10.9 3.7h.3c.1 0 .3 0 .4-.1.2-.1.3-.3.4-.6l2.8-19.2c0-.3-.1-.6-.3-.8z"/></g></svg>